<?xml version="1.0" standalone="no"?>
<!DOCTYPE svg PUBLIC "-//W3C//DTD SVG 20010904//EN"
 "http://www.w3.org/TR/2001/REC-SVG-20010904/DTD/svg10.dtd">
<svg version="1.0" xmlns="http://www.w3.org/2000/svg"
 width="270.000000pt" height="270.000000pt" viewBox="0 0 270.000000 270.000000"
 preserveAspectRatio="xMidYMid meet">

<g transform="translate(0.000000,270.000000) scale(0.100000,-0.100000)"
fill="#000000" stroke="none">
<path d="M1430 1920 l-345 -108 -3 -441 c-1 -242 -4 -441 -6 -441 -2 0 -23 7
-47 16 -24 9 -74 16 -112 16 -87 1 -167 -37 -211 -100 -41 -58 -49 -158 -17
-220 69 -135 293 -149 417 -25 61 61 64 87 64 559 l0 423 143 45 c78 25 199
63 270 84 l127 40 0 -324 c0 -179 -4 -324 -9 -324 -5 0 -25 7 -44 15 -21 8
-67 15 -106 15 -91 0 -162 -35 -208 -103 -61 -90 -53 -190 21 -263 51 -51 106
-69 193 -61 106 10 192 67 230 152 17 37 18 86 21 598 3 531 2 557 -15 556
-10 0 -173 -49 -363 -109z"/>
</g>
</svg>
